<mxfile host="65bd71144e">
    <diagram id="0Psh6iuW7GssUp9ffrjz" name="Page-1">
        <mxGraphModel dx="2309" dy="1442" grid="0" gridSize="10" guides="1" tooltips="1" connect="1" arrows="1" fold="1" page="0" pageScale="1" pageWidth="827" pageHeight="1169" background="#ffffff" math="0" shadow="0">
            <root>
                <mxCell id="0"/>
                <mxCell id="1" parent="0"/>
                <mxCell id="62" style="edgeStyle=none;html=1;exitX=0.008;exitY=0.569;exitDx=0;exitDy=0;entryX=1;entryY=0.5;entryDx=0;entryDy=0;labelBackgroundColor=#000000;labelBorderColor=#000000;fontSize=14;fontColor=#000000;strokeColor=#000000;exitPerimeter=0;rounded=0;fontFamily=Times New Roman;" parent="1" edge="1">
                    <mxGeometry relative="1" as="geometry">
                        <mxPoint x="-426.96000000000004" y="-555.1700000000001" as="sourcePoint"/>
                        <mxPoint x="-588" y="-555" as="targetPoint"/>
                    </mxGeometry>
                </mxCell>
                <mxCell id="63" value="Registration&lt;br style=&quot;font-size: 14px;&quot;&gt;1.0" style="shape=ellipse;html=1;dashed=0;whitespace=wrap;perimeter=ellipsePerimeter;labelBackgroundColor=#FFFFFF;fontSize=14;fontColor=#000000;strokeColor=#000000;fillColor=#FFFFFF;fontStyle=1;fontFamily=Times New Roman;" parent="1" vertex="1">
                    <mxGeometry x="-428" y="-600" width="130" height="70" as="geometry"/>
                </mxCell>
                <mxCell id="64" style="edgeStyle=elbowEdgeStyle;html=1;exitX=0.008;exitY=0.597;exitDx=0;exitDy=0;labelBackgroundColor=#000000;labelBorderColor=#000000;fontSize=14;fontColor=#000000;strokeColor=#000000;exitPerimeter=0;startArrow=none;rounded=0;fontFamily=Times New Roman;" parent="1" edge="1">
                    <mxGeometry relative="1" as="geometry">
                        <mxPoint x="-426.96000000000004" y="-468.21000000000004" as="sourcePoint"/>
                        <mxPoint x="-606" y="-540" as="targetPoint"/>
                        <Array as="points">
                            <mxPoint x="-606" y="-487"/>
                        </Array>
                    </mxGeometry>
                </mxCell>
                <mxCell id="65" style="edgeStyle=elbowEdgeStyle;html=1;labelBackgroundColor=#000000;labelBorderColor=#000000;fontSize=14;fontColor=#000000;strokeColor=#000000;exitX=0.016;exitY=0.647;exitDx=0;exitDy=0;exitPerimeter=0;rounded=0;fontFamily=Times New Roman;entryX=0.715;entryY=0.994;entryDx=0;entryDy=0;entryPerimeter=0;" parent="1" target="79" edge="1" source="66">
                    <mxGeometry relative="1" as="geometry">
                        <mxPoint x="-427.35000000000036" y="-374.5699999999997" as="sourcePoint"/>
                        <mxPoint x="-651" y="-530" as="targetPoint"/>
                        <Array as="points">
                            <mxPoint x="-651" y="-449"/>
                        </Array>
                    </mxGeometry>
                </mxCell>
                <mxCell id="66" value="Search Product&lt;br style=&quot;font-size: 14px;&quot;&gt;3.0" style="shape=ellipse;html=1;dashed=0;whitespace=wrap;perimeter=ellipsePerimeter;labelBackgroundColor=#FFFFFF;fontSize=14;fontColor=#000000;strokeColor=#000000;fillColor=#FFFFFF;fontStyle=1;fontFamily=Times New Roman;" parent="1" vertex="1">
                    <mxGeometry x="-428" y="-420" width="130" height="70" as="geometry"/>
                </mxCell>
                <mxCell id="67" style="edgeStyle=elbowEdgeStyle;html=1;exitX=0.011;exitY=0.6;exitDx=0;exitDy=0;labelBackgroundColor=#000000;labelBorderColor=#000000;fontSize=14;fontColor=#000000;strokeColor=#000000;rounded=0;entryX=0.5;entryY=1;entryDx=0;entryDy=0;fontFamily=Times New Roman;exitPerimeter=0;" parent="1" target="79" edge="1" source="68">
                    <mxGeometry relative="1" as="geometry">
                        <mxPoint x="-428.0000000000018" y="-288" as="sourcePoint"/>
                        <mxPoint x="-698" y="-533" as="targetPoint"/>
                        <Array as="points">
                            <mxPoint x="-698" y="-513"/>
                            <mxPoint x="-728" y="-403"/>
                        </Array>
                    </mxGeometry>
                </mxCell>
                <mxCell id="68" value="Manage&lt;br style=&quot;font-size: 14px;&quot;&gt;Account&lt;br style=&quot;font-size: 14px;&quot;&gt;4.0" style="shape=ellipse;html=1;dashed=0;whitespace=wrap;perimeter=ellipsePerimeter;labelBackgroundColor=#FFFFFF;fontSize=14;fontColor=#000000;strokeColor=#000000;fillColor=#FFFFFF;fontStyle=1;fontFamily=Times New Roman;" parent="1" vertex="1">
                    <mxGeometry x="-428" y="-330" width="130" height="70" as="geometry"/>
                </mxCell>
                <mxCell id="69" style="edgeStyle=elbowEdgeStyle;html=1;labelBackgroundColor=#000000;labelBorderColor=#000000;fontSize=14;fontColor=#000000;strokeColor=#000000;exitX=0;exitY=0.5;exitDx=0;exitDy=0;rounded=0;fontFamily=Times New Roman;" parent="1" target="79" edge="1">
                    <mxGeometry relative="1" as="geometry">
                        <mxPoint x="-428.0000000000018" y="-200" as="sourcePoint"/>
                        <mxPoint x="-749" y="-535" as="targetPoint"/>
                        <Array as="points">
                            <mxPoint x="-749" y="-374"/>
                        </Array>
                    </mxGeometry>
                </mxCell>
                <mxCell id="70" value="Make Order&lt;br style=&quot;font-size: 14px;&quot;&gt;5.0" style="shape=ellipse;html=1;dashed=0;whitespace=wrap;perimeter=ellipsePerimeter;labelBackgroundColor=#FFFFFF;fontSize=14;fontColor=#000000;strokeColor=#000000;fillColor=#FFFFFF;fontStyle=1;fontFamily=Times New Roman;" parent="1" vertex="1">
                    <mxGeometry x="-428" y="-240" width="130" height="70" as="geometry"/>
                </mxCell>
                <mxCell id="71" style="edgeStyle=elbowEdgeStyle;html=1;exitX=0.011;exitY=0.59;exitDx=0;exitDy=0;labelBackgroundColor=#000000;labelBorderColor=#000000;fontSize=14;fontColor=#000000;strokeColor=#000000;exitPerimeter=0;rounded=0;entryX=0.05;entryY=1;entryDx=0;entryDy=0;entryPerimeter=0;fontFamily=Times New Roman;" parent="1" edge="1">
                    <mxGeometry relative="1" as="geometry">
                        <mxPoint x="-420.5699999999997" y="-104.69999999999982" as="sourcePoint"/>
                        <mxPoint x="-797.0000000000001" y="-542" as="targetPoint"/>
                        <Array as="points">
                            <mxPoint x="-797" y="-289"/>
                        </Array>
                    </mxGeometry>
                </mxCell>
                <mxCell id="72" value="Make Payment&lt;br style=&quot;font-size: 14px;&quot;&gt;6.0" style="shape=ellipse;html=1;dashed=0;whitespace=wrap;perimeter=ellipsePerimeter;labelBackgroundColor=#FFFFFF;fontSize=14;fontColor=#000000;strokeColor=#000000;fillColor=#FFFFFF;fontStyle=1;fontFamily=Times New Roman;" parent="1" vertex="1">
                    <mxGeometry x="-428" y="-150" width="130" height="70" as="geometry"/>
                </mxCell>
                <mxCell id="73" style="edgeStyle=none;html=1;exitX=1.002;exitY=0.295;exitDx=0;exitDy=0;labelBackgroundColor=#000000;labelBorderColor=#000000;fontSize=14;fontColor=#000000;strokeColor=#000000;exitPerimeter=0;entryX=0.013;entryY=0.357;entryDx=0;entryDy=0;entryPerimeter=0;fontFamily=Times New Roman;" parent="1" source="79" target="63" edge="1">
                    <mxGeometry relative="1" as="geometry">
                        <mxPoint x="-586" y="-576" as="sourcePoint"/>
                        <mxPoint x="-428" y="-575" as="targetPoint"/>
                    </mxGeometry>
                </mxCell>
                <mxCell id="74" style="edgeStyle=elbowEdgeStyle;html=1;exitX=0.928;exitY=0.989;exitDx=0;exitDy=0;labelBackgroundColor=#000000;labelBorderColor=#000000;fontSize=14;fontColor=#000000;strokeColor=#000000;exitPerimeter=0;rounded=0;entryX=0.008;entryY=0.366;entryDx=0;entryDy=0;entryPerimeter=0;fontFamily=Times New Roman;" parent="1" target="80" edge="1">
                    <mxGeometry relative="1" as="geometry">
                        <mxPoint x="-595.8000000000002" y="-550.5499999999997" as="sourcePoint"/>
                        <mxPoint x="-428" y="-484" as="targetPoint"/>
                        <Array as="points">
                            <mxPoint x="-595" y="-500"/>
                        </Array>
                    </mxGeometry>
                </mxCell>
                <mxCell id="75" style="edgeStyle=elbowEdgeStyle;html=1;exitX=0.75;exitY=1;exitDx=0;exitDy=0;labelBackgroundColor=#000000;labelBorderColor=#000000;fontSize=14;fontColor=#000000;strokeColor=#000000;rounded=0;entryX=0.041;entryY=0.269;entryDx=0;entryDy=0;entryPerimeter=0;fontFamily=Times New Roman;" parent="1" edge="1">
                    <mxGeometry relative="1" as="geometry">
                        <mxPoint x="-639" y="-539.9999999999995" as="sourcePoint"/>
                        <mxPoint x="-422.66999999999985" y="-399.1700000000001" as="targetPoint"/>
                        <Array as="points">
                            <mxPoint x="-639" y="-450"/>
                        </Array>
                    </mxGeometry>
                </mxCell>
                <mxCell id="76" style="edgeStyle=elbowEdgeStyle;html=1;exitX=0.5;exitY=1;exitDx=0;exitDy=0;labelBackgroundColor=#000000;labelBorderColor=#000000;fontSize=14;fontColor=#000000;strokeColor=#000000;rounded=0;entryX=0.03;entryY=0.339;entryDx=0;entryDy=0;entryPerimeter=0;fontFamily=Times New Roman;" parent="1" target="68" edge="1">
                    <mxGeometry relative="1" as="geometry">
                        <mxPoint x="-686" y="-551" as="sourcePoint"/>
                        <mxPoint x="-428" y="-306" as="targetPoint"/>
                        <Array as="points">
                            <mxPoint x="-686" y="-321"/>
                        </Array>
                    </mxGeometry>
                </mxCell>
                <mxCell id="77" style="edgeStyle=elbowEdgeStyle;html=1;exitX=0.25;exitY=1;exitDx=0;exitDy=0;labelBackgroundColor=#000000;labelBorderColor=#000000;fontSize=14;fontColor=#000000;strokeColor=#000000;rounded=0;entryX=0.032;entryY=0.311;entryDx=0;entryDy=0;entryPerimeter=0;fontFamily=Times New Roman;" parent="1" target="70" edge="1">
                    <mxGeometry relative="1" as="geometry">
                        <mxPoint x="-734" y="-553" as="sourcePoint"/>
                        <mxPoint x="-428" y="-218" as="targetPoint"/>
                        <Array as="points">
                            <mxPoint x="-734" y="-363"/>
                        </Array>
                    </mxGeometry>
                </mxCell>
                <mxCell id="78" style="edgeStyle=elbowEdgeStyle;html=1;exitX=0.13;exitY=1;exitDx=0;exitDy=0;labelBackgroundColor=#000000;labelBorderColor=#000000;fontSize=14;fontColor=#000000;strokeColor=#000000;exitPerimeter=0;rounded=0;entryX=0.015;entryY=0.385;entryDx=0;entryDy=0;entryPerimeter=0;fontFamily=Times New Roman;" parent="1" target="72" edge="1">
                    <mxGeometry relative="1" as="geometry">
                        <mxPoint x="-782.1000000000004" y="-548" as="sourcePoint"/>
                        <mxPoint x="-428" y="-123" as="targetPoint"/>
                        <Array as="points">
                            <mxPoint x="-782" y="-508"/>
                            <mxPoint x="-782" y="-438"/>
                        </Array>
                    </mxGeometry>
                </mxCell>
                <mxCell id="79" value="&lt;font color=&quot;#000000&quot; style=&quot;font-size: 14px;&quot;&gt;&lt;b style=&quot;font-size: 14px;&quot;&gt;CUSTOMER&lt;/b&gt;&lt;/font&gt;" style="html=1;dashed=0;whitespace=wrap;fillColor=#FFFFFF;strokeColor=#000000;fontFamily=Times New Roman;fontSize=14;" parent="1" vertex="1">
                    <mxGeometry x="-808" y="-590" width="220" height="50" as="geometry"/>
                </mxCell>
                <mxCell id="80" value="Login&lt;br style=&quot;font-size: 14px;&quot;&gt;2.0" style="shape=ellipse;html=1;dashed=0;whitespace=wrap;perimeter=ellipsePerimeter;labelBackgroundColor=#FFFFFF;fontSize=14;fontColor=#000000;strokeColor=#000000;fillColor=#FFFFFF;fontStyle=1;fontFamily=Times New Roman;" parent="1" vertex="1">
                    <mxGeometry x="-428" y="-510" width="130" height="70" as="geometry"/>
                </mxCell>
                <mxCell id="81" value="" style="endArrow=classic;html=1;rounded=0;labelBackgroundColor=#000000;labelBorderColor=#000000;fontSize=14;fontColor=#000000;strokeColor=#000000;fontFamily=Times New Roman;entryX=0.75;entryY=0;entryDx=0;entryDy=0;exitX=0.954;exitY=0.286;exitDx=0;exitDy=0;exitPerimeter=0;" parent="1" source="63" edge="1">
                    <mxGeometry width="50" height="50" relative="1" as="geometry">
                        <mxPoint x="-300" y="-580" as="sourcePoint"/>
                        <mxPoint x="-52" y="-490" as="targetPoint"/>
                        <Array as="points">
                            <mxPoint x="-52" y="-580"/>
                        </Array>
                    </mxGeometry>
                </mxCell>
                <mxCell id="82" value="" style="endArrow=classic;html=1;rounded=0;labelBackgroundColor=#000000;labelBorderColor=#000000;fontSize=14;fontColor=#000000;strokeColor=#000000;fontFamily=Times New Roman;exitX=0.25;exitY=0;exitDx=0;exitDy=0;entryX=0.996;entryY=0.588;entryDx=0;entryDy=0;entryPerimeter=0;" parent="1" target="63" edge="1">
                    <mxGeometry width="50" height="50" relative="1" as="geometry">
                        <mxPoint x="-86" y="-490" as="sourcePoint"/>
                        <mxPoint x="-292.29999999999995" y="-558.63" as="targetPoint"/>
                        <Array as="points">
                            <mxPoint x="-86" y="-558"/>
                        </Array>
                    </mxGeometry>
                </mxCell>
                <mxCell id="83" value="" style="endArrow=classic;html=1;rounded=0;labelBackgroundColor=#000000;labelBorderColor=#000000;fontSize=14;fontColor=#000000;strokeColor=#000000;fontFamily=Times New Roman;exitX=0.975;exitY=0.35;exitDx=0;exitDy=0;exitPerimeter=0;entryX=0.002;entryY=0.235;entryDx=0;entryDy=0;entryPerimeter=0;" parent="1" edge="1" target="94">
                    <mxGeometry width="50" height="50" relative="1" as="geometry">
                        <mxPoint x="-300.25" y="-483.5" as="sourcePoint"/>
                        <mxPoint x="-121" y="-483" as="targetPoint"/>
                    </mxGeometry>
                </mxCell>
                <mxCell id="84" value="" style="endArrow=classic;html=1;rounded=0;labelBackgroundColor=#000000;labelBorderColor=#000000;fontSize=14;fontColor=#000000;strokeColor=#000000;fontFamily=Times New Roman;entryX=0.97;entryY=0.663;entryDx=0;entryDy=0;entryPerimeter=0;exitX=-0.002;exitY=0.868;exitDx=0;exitDy=0;exitPerimeter=0;" parent="1" edge="1" source="94">
                    <mxGeometry width="50" height="50" relative="1" as="geometry">
                        <mxPoint x="-123" y="-464" as="sourcePoint"/>
                        <mxPoint x="-301.9000000000001" y="-464.5899999999999" as="targetPoint"/>
                    </mxGeometry>
                </mxCell>
                <mxCell id="85" value="" style="endArrow=classic;html=1;rounded=0;labelBackgroundColor=#000000;labelBorderColor=#000000;fontSize=14;fontColor=#000000;strokeColor=#000000;fontFamily=Times New Roman;entryX=0.25;entryY=1;entryDx=0;entryDy=0;exitX=0.985;exitY=0.363;exitDx=0;exitDy=0;exitPerimeter=0;" parent="1" edge="1" source="66">
                    <mxGeometry width="50" height="50" relative="1" as="geometry">
                        <mxPoint x="-294.3800000000001" y="-394.65999999999997" as="sourcePoint"/>
                        <mxPoint x="-86" y="-460" as="targetPoint"/>
                        <Array as="points">
                            <mxPoint x="-86" y="-394"/>
                        </Array>
                    </mxGeometry>
                </mxCell>
                <mxCell id="86" value="" style="endArrow=classic;html=1;rounded=0;labelBackgroundColor=#000000;labelBorderColor=#000000;fontSize=14;fontColor=#000000;strokeColor=#000000;fontFamily=Times New Roman;exitX=0.75;exitY=1;exitDx=0;exitDy=0;entryX=0.978;entryY=0.657;entryDx=0;entryDy=0;entryPerimeter=0;" parent="1" edge="1" target="66">
                    <mxGeometry width="50" height="50" relative="1" as="geometry">
                        <mxPoint x="-52" y="-460" as="sourcePoint"/>
                        <mxPoint x="-299" y="-374" as="targetPoint"/>
                        <Array as="points">
                            <mxPoint x="-53" y="-374"/>
                        </Array>
                    </mxGeometry>
                </mxCell>
                <mxCell id="87" value="" style="endArrow=classic;html=1;rounded=0;labelBackgroundColor=#000000;labelBorderColor=#000000;fontSize=14;fontColor=#000000;strokeColor=#000000;fontFamily=Times New Roman;exitX=0.983;exitY=0.377;exitDx=0;exitDy=0;exitPerimeter=0;entryX=-0.003;entryY=0.163;entryDx=0;entryDy=0;entryPerimeter=0;" parent="1" edge="1">
                    <mxGeometry width="50" height="50" relative="1" as="geometry">
                        <mxPoint x="-300.21000000000004" y="-302.61" as="sourcePoint"/>
                        <mxPoint x="-118.29999999999995" y="-302.61" as="targetPoint"/>
                    </mxGeometry>
                </mxCell>
                <mxCell id="88" value="" style="endArrow=classic;html=1;rounded=0;labelBackgroundColor=#000000;labelBorderColor=#000000;fontSize=14;fontColor=#000000;strokeColor=#000000;fontFamily=Times New Roman;entryX=0.977;entryY=0.648;entryDx=0;entryDy=0;entryPerimeter=0;exitX=0.002;exitY=0.832;exitDx=0;exitDy=0;exitPerimeter=0;" parent="1" edge="1">
                    <mxGeometry width="50" height="50" relative="1" as="geometry">
                        <mxPoint x="-117.79999999999973" y="-285.5400000000001" as="sourcePoint"/>
                        <mxPoint x="-300.99" y="-285.6400000000001" as="targetPoint"/>
                    </mxGeometry>
                </mxCell>
                <mxCell id="89" value="" style="endArrow=classic;html=1;rounded=0;labelBackgroundColor=#000000;labelBorderColor=#000000;fontSize=14;fontColor=#000000;strokeColor=#000000;fontFamily=Times New Roman;entryX=0;entryY=0.25;entryDx=0;entryDy=0;" parent="1" edge="1" target="97">
                    <mxGeometry width="50" height="50" relative="1" as="geometry">
                        <mxPoint x="-298" y="-213.5" as="sourcePoint"/>
                        <mxPoint x="-138" y="-213.5" as="targetPoint"/>
                    </mxGeometry>
                </mxCell>
                <mxCell id="90" value="" style="endArrow=classic;html=1;rounded=0;labelBackgroundColor=#000000;labelBorderColor=#000000;fontSize=14;fontColor=#000000;strokeColor=#000000;fontFamily=Times New Roman;exitX=0;exitY=0.842;exitDx=0;exitDy=0;exitPerimeter=0;" parent="1" edge="1" source="97">
                    <mxGeometry width="50" height="50" relative="1" as="geometry">
                        <mxPoint x="-140" y="-194.5" as="sourcePoint"/>
                        <mxPoint x="-300" y="-194.5" as="targetPoint"/>
                    </mxGeometry>
                </mxCell>
                <mxCell id="91" value="" style="endArrow=classic;html=1;rounded=0;labelBackgroundColor=#000000;labelBorderColor=#000000;fontSize=14;fontColor=#000000;strokeColor=#000000;fontFamily=Times New Roman;exitX=0.988;exitY=0.391;exitDx=0;exitDy=0;exitPerimeter=0;entryX=0;entryY=0.25;entryDx=0;entryDy=0;" parent="1" edge="1" target="98" source="72">
                    <mxGeometry width="50" height="50" relative="1" as="geometry">
                        <mxPoint x="-298" y="-122.5" as="sourcePoint"/>
                        <mxPoint x="-123" y="-122" as="targetPoint"/>
                    </mxGeometry>
                </mxCell>
                <mxCell id="92" value="" style="endArrow=classic;html=1;rounded=0;labelBackgroundColor=#000000;labelBorderColor=#000000;fontSize=14;fontColor=#000000;strokeColor=#000000;fontFamily=Times New Roman;exitX=-0.003;exitY=0.824;exitDx=0;exitDy=0;exitPerimeter=0;" parent="1" edge="1">
                    <mxGeometry width="50" height="50" relative="1" as="geometry">
                        <mxPoint x="-118.30000000000018" y="-105.27999999999997" as="sourcePoint"/>
                        <mxPoint x="-301" y="-104.5" as="targetPoint"/>
                    </mxGeometry>
                </mxCell>
                <mxCell id="94" value="&lt;b style=&quot;font-size: 14px;&quot;&gt;customer&lt;/b&gt;" style="html=1;dashed=0;whitespace=wrap;shape=partialRectangle;right=0;left=0;labelBackgroundColor=none;fontSize=14;fontColor=#000000;strokeColor=#000000;fillColor=#FFFFFF;fontFamily=Times New Roman;" parent="1" vertex="1">
                    <mxGeometry x="-118" y="-490" width="100" height="30" as="geometry"/>
                </mxCell>
                <mxCell id="95" value="&lt;b style=&quot;font-size: 14px;&quot;&gt;product&lt;/b&gt;" style="html=1;dashed=0;whitespace=wrap;shape=partialRectangle;right=0;left=0;labelBackgroundColor=none;fontSize=14;fontColor=#000000;strokeColor=#000000;fillColor=#FFFFFF;fontFamily=Times New Roman;" parent="1" vertex="1">
                    <mxGeometry x="-118" y="-309.5" width="100" height="30" as="geometry"/>
                </mxCell>
                <mxCell id="97" value="&lt;b style=&quot;font-size: 14px;&quot;&gt;order&lt;/b&gt;" style="html=1;dashed=0;whitespace=wrap;shape=partialRectangle;right=0;left=0;labelBackgroundColor=none;fontSize=14;fontColor=#000000;strokeColor=#000000;fillColor=#FFFFFF;fontFamily=Times New Roman;" parent="1" vertex="1">
                    <mxGeometry x="-118" y="-220" width="100" height="30" as="geometry"/>
                </mxCell>
                <mxCell id="98" value="&lt;b style=&quot;font-size: 14px;&quot;&gt;payment&lt;/b&gt;" style="html=1;dashed=0;whitespace=wrap;shape=partialRectangle;right=0;left=0;labelBackgroundColor=none;fontSize=14;fontColor=#000000;strokeColor=#000000;fillColor=#FFFFFF;fontFamily=Times New Roman;" parent="1" vertex="1">
                    <mxGeometry x="-118" y="-130" width="100" height="30" as="geometry"/>
                </mxCell>
                <mxCell id="99" value="&lt;font style=&quot;font-size: 14px;&quot;&gt;Acknowledgement&lt;/font&gt;" style="text;html=1;align=right;verticalAlign=middle;resizable=0;points=[];autosize=1;strokeColor=none;fillColor=none;fontSize=14;fontColor=#000000;fontStyle=1;fontFamily=Times New Roman;" parent="1" vertex="1">
                    <mxGeometry x="-278" y="-579" width="120" height="21" as="geometry"/>
                </mxCell>
                <mxCell id="100" value="&lt;font style=&quot;font-size: 14px;&quot;&gt;Acknowledgement&lt;/font&gt;" style="text;html=1;align=right;verticalAlign=middle;resizable=0;points=[];autosize=1;strokeColor=none;fillColor=none;fontSize=14;fontColor=#000000;fontStyle=1;fontFamily=Times New Roman;" parent="1" vertex="1">
                    <mxGeometry x="-278" y="-483" width="120" height="21" as="geometry"/>
                </mxCell>
                <mxCell id="101" value="&lt;font style=&quot;font-size: 14px;&quot;&gt;Acknowledgement&lt;/font&gt;" style="text;html=1;align=right;verticalAlign=middle;resizable=0;points=[];autosize=1;strokeColor=none;fillColor=none;fontSize=14;fontColor=#000000;fontStyle=1;fontFamily=Times New Roman;" parent="1" vertex="1">
                    <mxGeometry x="-278" y="-393" width="120" height="21" as="geometry"/>
                </mxCell>
                <mxCell id="102" value="&lt;font style=&quot;font-size: 14px;&quot;&gt;Acknowledgement&lt;/font&gt;" style="text;html=1;align=right;verticalAlign=middle;resizable=0;points=[];autosize=1;strokeColor=none;fillColor=none;fontSize=14;fontColor=#000000;fontStyle=1;fontFamily=Times New Roman;" parent="1" vertex="1">
                    <mxGeometry x="-278" y="-305" width="120" height="21" as="geometry"/>
                </mxCell>
                <mxCell id="103" value="&lt;font style=&quot;font-size: 14px;&quot;&gt;Acknowledgement&lt;/font&gt;" style="text;html=1;align=right;verticalAlign=middle;resizable=0;points=[];autosize=1;strokeColor=none;fillColor=none;fontSize=14;fontColor=#000000;fontStyle=1;fontFamily=Times New Roman;" parent="1" vertex="1">
                    <mxGeometry x="-278" y="-214" width="120" height="21" as="geometry"/>
                </mxCell>
                <mxCell id="104" value="&lt;font style=&quot;font-size: 14px;&quot;&gt;Acknowledgement&lt;/font&gt;" style="text;html=1;align=right;verticalAlign=middle;resizable=0;points=[];autosize=1;strokeColor=none;fillColor=none;fontSize=14;fontColor=#000000;fontStyle=1;fontFamily=Times New Roman;" parent="1" vertex="1">
                    <mxGeometry x="-278" y="-124" width="120" height="21" as="geometry"/>
                </mxCell>
                <mxCell id="105" value="&lt;b style=&quot;font-size: 14px;&quot;&gt;Request for Registration&lt;/b&gt;" style="text;html=1;align=center;verticalAlign=middle;resizable=0;points=[];autosize=1;strokeColor=none;fillColor=none;fontSize=14;fontColor=#000000;fontFamily=Times New Roman;" parent="1" vertex="1">
                    <mxGeometry x="-293" y="-600" width="157" height="21" as="geometry"/>
                </mxCell>
                <mxCell id="106" value="&lt;b style=&quot;font-size: 14px;&quot;&gt;Check for Login&lt;/b&gt;" style="text;html=1;align=center;verticalAlign=middle;resizable=0;points=[];autosize=1;strokeColor=none;fillColor=none;fontSize=14;fontColor=#000000;fontFamily=Times New Roman;" parent="1" vertex="1">
                    <mxGeometry x="-274" y="-504" width="108" height="21" as="geometry"/>
                </mxCell>
                <mxCell id="107" value="&lt;b style=&quot;font-size: 14px;&quot;&gt;Request for Registration&lt;/b&gt;" style="text;html=1;align=center;verticalAlign=middle;resizable=0;points=[];autosize=1;strokeColor=none;fillColor=none;fontSize=14;fontColor=#000000;fontFamily=Times New Roman;" parent="1" vertex="1">
                    <mxGeometry x="-581" y="-594" width="157" height="21" as="geometry"/>
                </mxCell>
                <mxCell id="108" value="&lt;span style=&quot;color: rgb(0, 0, 0); font-size: 14px; font-style: normal; font-weight: 700; letter-spacing: normal; text-align: right; text-indent: 0px; text-transform: none; word-spacing: 0px; display: inline; float: none;&quot;&gt;Acknowledgement&lt;/span&gt;" style="text;whiteSpace=wrap;html=1;fontSize=14;fontColor=#000000;fontFamily=Times New Roman;" parent="1" vertex="1">
                    <mxGeometry x="-566" y="-579" width="140" height="30" as="geometry"/>
                </mxCell>
                <mxCell id="109" value="&lt;b style=&quot;font-size: 14px;&quot;&gt;username,password&lt;/b&gt;" style="text;html=1;align=center;verticalAlign=middle;resizable=0;points=[];autosize=1;strokeColor=none;fillColor=none;fontSize=14;fontColor=#000000;fontFamily=Times New Roman;" parent="1" vertex="1">
                    <mxGeometry x="-582" y="-504" width="129" height="21" as="geometry"/>
                </mxCell>
                <mxCell id="110" value="&lt;b style=&quot;font-size: 14px;&quot;&gt;Acknowledgement&lt;/b&gt;" style="text;html=1;align=center;verticalAlign=middle;resizable=0;points=[];autosize=1;strokeColor=none;fillColor=none;fontSize=14;fontColor=#000000;fontFamily=Times New Roman;" parent="1" vertex="1">
                    <mxGeometry x="-577" y="-487" width="120" height="21" as="geometry"/>
                </mxCell>
                <mxCell id="111" value="&lt;b style=&quot;font-size: 14px;&quot;&gt;Acknowledgement&lt;/b&gt;" style="text;html=1;align=center;verticalAlign=middle;resizable=0;points=[];autosize=1;strokeColor=none;fillColor=none;fontSize=14;fontColor=#000000;fontFamily=Times New Roman;" parent="1" vertex="1">
                    <mxGeometry x="-567" y="-395" width="120" height="21" as="geometry"/>
                </mxCell>
                <mxCell id="112" value="&lt;b style=&quot;font-size: 14px;&quot;&gt;Acknowledgement&lt;/b&gt;" style="text;html=1;align=center;verticalAlign=middle;resizable=0;points=[];autosize=1;strokeColor=none;fillColor=none;fontSize=14;fontColor=#000000;fontFamily=Times New Roman;" parent="1" vertex="1">
                    <mxGeometry x="-568" y="-307" width="120" height="21" as="geometry"/>
                </mxCell>
                <mxCell id="113" value="&lt;b style=&quot;font-size: 14px;&quot;&gt;Acknowledgement&lt;/b&gt;" style="text;html=1;align=center;verticalAlign=middle;resizable=0;points=[];autosize=1;strokeColor=none;fillColor=none;fontSize=14;fontColor=#000000;fontFamily=Times New Roman;" parent="1" vertex="1">
                    <mxGeometry x="-567" y="-220" width="120" height="21" as="geometry"/>
                </mxCell>
                <mxCell id="114" value="&lt;b style=&quot;font-size: 14px;&quot;&gt;Acknowledgement&lt;/b&gt;" style="text;html=1;align=center;verticalAlign=middle;resizable=0;points=[];autosize=1;strokeColor=none;fillColor=none;fontSize=14;fontColor=#000000;fontFamily=Times New Roman;" parent="1" vertex="1">
                    <mxGeometry x="-573" y="-124" width="120" height="21" as="geometry"/>
                </mxCell>
                <mxCell id="115" value="&lt;b style=&quot;font-size: 14px;&quot;&gt;Searching&lt;/b&gt;" style="text;html=1;align=center;verticalAlign=middle;resizable=0;points=[];autosize=1;strokeColor=none;fillColor=none;fontSize=14;fontColor=#000000;fontFamily=Times New Roman;" parent="1" vertex="1">
                    <mxGeometry x="-552" y="-419" width="70" height="21" as="geometry"/>
                </mxCell>
                <mxCell id="116" value="&lt;b style=&quot;font-size: 14px;&quot;&gt;Search Product&lt;/b&gt;" style="text;html=1;align=center;verticalAlign=middle;resizable=0;points=[];autosize=1;strokeColor=none;fillColor=none;fontSize=14;fontColor=#000000;fontFamily=Times New Roman;" parent="1" vertex="1">
                    <mxGeometry x="-274" y="-414" width="102" height="21" as="geometry"/>
                </mxCell>
                <mxCell id="117" value="&lt;b style=&quot;font-size: 14px;&quot;&gt;&lt;font style=&quot;font-size: 14px;&quot; color=&quot;#000000&quot;&gt;Manage Account&lt;/font&gt;&lt;/b&gt;" style="text;html=1;align=center;verticalAlign=middle;resizable=0;points=[];autosize=1;strokeColor=none;fillColor=none;fontFamily=Times New Roman;fontSize=14;" parent="1" vertex="1">
                    <mxGeometry x="-562" y="-325" width="111" height="21" as="geometry"/>
                </mxCell>
                <mxCell id="118" value="&lt;b style=&quot;font-size: 14px;&quot;&gt;Add/Update&lt;/b&gt;" style="text;html=1;align=center;verticalAlign=middle;resizable=0;points=[];autosize=1;strokeColor=none;fillColor=none;fontSize=14;fontColor=#000000;fontFamily=Times New Roman;" parent="1" vertex="1">
                    <mxGeometry x="-264" y="-323" width="83" height="21" as="geometry"/>
                </mxCell>
                <mxCell id="119" value="&lt;b style=&quot;font-size: 14px;&quot;&gt;Buy&amp;nbsp;&lt;/b&gt;" style="text;html=1;align=center;verticalAlign=middle;resizable=0;points=[];autosize=1;strokeColor=none;fillColor=none;fontSize=14;fontColor=#000000;fontFamily=Times New Roman;" parent="1" vertex="1">
                    <mxGeometry x="-526" y="-240" width="38" height="21" as="geometry"/>
                </mxCell>
                <mxCell id="121" value="&lt;b style=&quot;font-size: 14px;&quot;&gt;Buy Product&lt;/b&gt;" style="text;html=1;align=center;verticalAlign=middle;resizable=0;points=[];autosize=1;strokeColor=none;fillColor=none;fontSize=14;fontColor=#000000;fontFamily=Times New Roman;" parent="1" vertex="1">
                    <mxGeometry x="-258" y="-233" width="86" height="21" as="geometry"/>
                </mxCell>
                <mxCell id="122" value="&lt;b style=&quot;font-size: 14px;&quot;&gt;Payment&lt;/b&gt;" style="text;html=1;align=center;verticalAlign=middle;resizable=0;points=[];autosize=1;strokeColor=none;fillColor=none;fontSize=14;fontColor=#000000;fontFamily=Times New Roman;" parent="1" vertex="1">
                    <mxGeometry x="-549" y="-143" width="63" height="21" as="geometry"/>
                </mxCell>
                <mxCell id="123" value="&lt;b style=&quot;font-size: 14px;&quot;&gt;Make Payment&lt;/b&gt;" style="text;html=1;align=center;verticalAlign=middle;resizable=0;points=[];autosize=1;strokeColor=none;fillColor=none;fontSize=14;fontColor=#000000;fontFamily=Times New Roman;" parent="1" vertex="1">
                    <mxGeometry x="-264" y="-143" width="101" height="21" as="geometry"/>
                </mxCell>
            </root>
        </mxGraphModel>
    </diagram>
</mxfile>